<svg xmlns="http://www.w3.org/2000/svg" xmlns:xlink="http://www.w3.org/1999/xlink" width="102" height="112" viewBox="0 0 102 112">
  <defs>
    <linearGradient id="linear-gradient" x1="0.5" x2="0.5" y2="1" gradientUnits="objectBoundingBox">
      <stop offset="0" stop-color="#f5f7fa"/>
      <stop offset="1" stop-color="#c3cfe2"/>
    </linearGradient>
    <filter id="Ellipse_1" x="6" y="0" width="90" height="90" filterUnits="userSpaceOnUse">
      <feOffset dy="3" input="SourceAlpha"/>
      <feGaussianBlur stdDeviation="3" result="blur"/>
      <feFlood flood-opacity="0.4"/>
      <feComposite operator="in" in2="blur"/>
      <feComposite in="SourceGraphic"/>
    </filter>
    <filter id="Food_Gallery">
      <feOffset input="SourceAlpha"/>
      <feGaussianBlur stdDeviation="3" result="blur-2"/>
      <feFlood flood-opacity="0.18" result="color"/>
      <feComposite operator="out" in="SourceGraphic" in2="blur-2"/>
      <feComposite operator="in" in="color"/>
      <feComposite operator="in" in2="SourceGraphic"/>
    </filter>
  </defs>
  <g id="log2o" transform="translate(-834 -378)">
    <g transform="matrix(1, 0, 0, 1, 834, 378)" filter="url(#Ellipse_1)">
      <circle id="Ellipse_1-2" data-name="Ellipse 1" cx="36" cy="36" r="36" transform="translate(15 6)" fill="url(#linear-gradient)"/>
    </g>
    <path id="Icon_metro-spoon-fork" data-name="Icon metro-spoon-fork" d="M7.97,1.928C5.52,1.928,3.535,4.245,3.535,7.1a5.077,5.077,0,0,0,3.412,5.036L6.212,24.106A1.377,1.377,0,0,0,7.6,25.582h.739a1.377,1.377,0,0,0,1.388-1.476L8.993,12.138A5.077,5.077,0,0,0,12.4,7.1C12.4,4.245,10.419,1.928,7.97,1.928Zm14.907,0L21.645,9.32h-.924L20.1,1.928h-.616L18.873,9.32h-.924L16.717,1.928H16.1v9.609a.739.739,0,0,0,.739.739h1.925l-.726,11.83a1.377,1.377,0,0,0,1.388,1.476h.739a1.377,1.377,0,0,0,1.388-1.476l-.726-11.83h1.925a.739.739,0,0,0,.739-.739V1.928Z" transform="translate(898.582 425.537) rotate(90)" fill="#ee7e0f"/>
    <g id="Icon_ionic-md-restaurant" data-name="Icon ionic-md-restaurant" transform="translate(862.59 389.147)">
      <path id="Path_1" data-name="Path 1" d="M14.144,24.252l5.7-5.558L5.737,5.042a7.686,7.686,0,0,0,0,11.018Z" transform="translate(0 0.169)" fill="#0f61ee"/>
      <path id="Path_3" data-name="Path 3" d="M14.144,24.252l5.7-5.558L5.737,5.042a7.686,7.686,0,0,0,0,11.018Z" transform="translate(0 0.169)" fill="#ff6f00"/>
      <path id="Path_2" data-name="Path 2" d="M27.3,20.91c3.1,1.366,7.406.39,10.508-2.73,3.8-3.705,4.6-9.069,1.6-11.9C36.5,3.358,31,4.139,27.2,7.844c-3.2,3.12-4.2,7.313-2.8,10.239C19.99,22.471,4.878,37.194,4.878,37.194l2.8,2.73L21.492,26.468,35.3,39.924l2.8-2.73L24.294,23.738Z" transform="translate(0.458 0)"/>
    </g>
    <g data-type="innerShadowGroup">
      <text id="Food_Gallery-2" data-name="Food Gallery" transform="translate(834 461)" fill="#ee7e0f" font-size="18" font-family="VinerHandITC, Viner Hand ITC"><tspan x="0" y="18">Food </tspan><tspan y="18" fill="#000">Gallery</tspan></text>
      <g transform="matrix(1, 0, 0, 1, 834, 378)" filter="url(#Food_Gallery)">
        <text id="Food_Gallery-3" data-name="Food Gallery" transform="translate(0 83)" fill="#fff" font-size="18" font-family="VinerHandITC, Viner Hand ITC"><tspan x="0" y="18">Food </tspan><tspan y="18">Gallery</tspan></text>
      </g>
    </g>
  </g>
</svg>
