<svg xmlns="http://www.w3.org/2000/svg" xmlns:xlink="http://www.w3.org/1999/xlink" width="118" height="135" viewBox="0 0 118 135">
  <defs>
    <linearGradient id="linear-gradient" x1="0.5" x2="0.5" y2="1" gradientUnits="objectBoundingBox">
      <stop offset="0" stop-color="#f5f7fa"/>
      <stop offset="1" stop-color="#c3cfe2"/>
    </linearGradient>
    <filter id="Ellipse_1" x="0" y="0" width="118" height="118" filterUnits="userSpaceOnUse">
      <feOffset dy="3" input="SourceAlpha"/>
      <feGaussianBlur stdDeviation="3" result="blur"/>
      <feFlood flood-opacity="0.4"/>
      <feComposite operator="in" in2="blur"/>
      <feComposite in="SourceGraphic"/>
    </filter>
    <filter id="Food_Gallery">
      <feOffset input="SourceAlpha"/>
      <feGaussianBlur stdDeviation="3" result="blur-2"/>
      <feFlood flood-opacity="0.18" result="color"/>
      <feComposite operator="out" in="SourceGraphic" in2="blur-2"/>
      <feComposite operator="in" in="color"/>
      <feComposite operator="in" in2="SourceGraphic"/>
    </filter>
  </defs>
  <g id="logo" transform="translate(-827 -350)">
    <g transform="matrix(1, 0, 0, 1, 827, 350)" filter="url(#Ellipse_1)">
      <circle id="Ellipse_1-2" data-name="Ellipse 1" cx="50" cy="50" r="50" transform="translate(9 6)" fill="url(#linear-gradient)"/>
    </g>
    <path id="Icon_metro-spoon-fork" data-name="Icon metro-spoon-fork" d="M9.319,1.928c-3.195,0-5.784,3.021-5.784,6.748a6.621,6.621,0,0,0,4.45,6.567L7.027,30.852a1.8,1.8,0,0,0,1.81,1.924H9.8a1.8,1.8,0,0,0,1.81-1.924l-.958-15.609A6.621,6.621,0,0,0,15.1,8.676c0-3.727-2.59-6.748-5.784-6.748Zm19.441,0-1.607,9.64H25.948l-.8-9.64h-.8l-.8,9.64H22.333l-1.607-9.64h-.8V14.46a.964.964,0,0,0,.964.964H23.4l-.947,15.428a1.8,1.8,0,0,0,1.81,1.924h.964a1.8,1.8,0,0,0,1.81-1.924l-.947-15.428H28.6a.964.964,0,0,0,.964-.964V1.928Z" transform="translate(903.777 418.465) rotate(90)" fill="#ee7e0f"/>
    <g id="Icon_ionic-md-restaurant" data-name="Icon ionic-md-restaurant" transform="translate(848.59 361.5)">
      <path id="Path_1" data-name="Path 1" d="M22.521,39.244l10.156-9.9L7.552,5.042a13.685,13.685,0,0,0,0,19.618Z" transform="translate(0 0.724)" fill="#ee7e0f"/>
      <path id="Path_2" data-name="Path 2" d="M44.792,33.717c5.525,2.431,13.186.7,18.71-4.861,6.771-6.6,8.2-16.146,2.852-21.182-5.168-5.208-14.968-3.818-21.739,2.779-5.7,5.556-7.484,13.021-4.989,18.229C31.785,36.5,4.878,62.711,4.878,62.711l4.989,4.861,24.59-23.958L59.047,67.572l4.989-4.861L39.446,38.752Z" transform="translate(1.962 0)"/>
    </g>
    <g data-type="innerShadowGroup">
      <text id="Food_Gallery-2" data-name="Food Gallery" transform="translate(828 453)" fill="#ee7e0f" font-size="20" font-family="VinerHandITC, Viner Hand ITC"><tspan x="0" y="20">Food </tspan><tspan y="20" fill="#000">Gallery</tspan></text>
      <g transform="matrix(1, 0, 0, 1, 827, 350)" filter="url(#Food_Gallery)">
        <text id="Food_Gallery-3" data-name="Food Gallery" transform="translate(1 103)" fill="#fff" font-size="20" font-family="VinerHandITC, Viner Hand ITC"><tspan x="0" y="20">Food </tspan><tspan y="20">Gallery</tspan></text>
      </g>
    </g>
  </g>
</svg>
