<svg width="185" height="32" viewBox="0 0 185 32" fill="none" xmlns="http://www.w3.org/2000/svg">
<path fill-rule="evenodd" clip-rule="evenodd" d="M63.7389 8.52163C62.2167 8.47188 60.7003 8.73179 59.2815 9.28559C57.8627 9.83939 56.5712 10.6756 55.4852 11.7434C54.3993 12.8112 53.5415 14.0885 52.9639 15.4977C52.3863 16.9069 52.1008 18.4188 52.1249 19.9416V19.9796C52.0936 22.2836 52.7482 24.5449 54.0054 26.4758C55.2627 28.4068 57.0658 29.9202 59.1856 30.8236C61.3053 31.727 63.6458 31.9796 65.9094 31.5492C68.1731 31.1189 70.2576 30.025 71.8979 28.4067C73.5382 26.7885 74.6601 24.7189 75.121 22.4613C75.582 20.2037 75.3611 17.86 74.4864 15.7283C73.6117 13.5965 72.1229 11.7731 70.2091 10.4898C68.2953 9.20655 66.0431 8.52144 63.7389 8.52163ZM63.7389 25.4136C63.0433 25.4039 62.3567 25.2558 61.7189 24.9781C61.0812 24.7003 60.505 24.2985 60.024 23.7959C59.543 23.2934 59.1669 22.7001 58.9174 22.0508C58.668 21.4014 58.5502 20.7089 58.5709 20.0136V19.9746C58.6228 18.9642 58.9698 17.9911 59.569 17.1759C60.1682 16.3607 60.9933 15.7391 61.9422 15.388C62.8911 15.037 63.9221 14.9719 64.9077 15.2008C65.8932 15.4297 66.7899 15.9426 67.4869 16.676C68.1839 17.4094 68.6505 18.3311 68.829 19.327C69.0075 20.3229 68.89 21.3493 68.4912 22.2791C68.0923 23.2089 67.4294 24.0013 66.5848 24.5583C65.7401 25.1152 64.7507 25.4123 63.7389 25.4126V25.4136Z" fill="white"/>
<path fill-rule="evenodd" clip-rule="evenodd" d="M46.3372 11.9008C45.2849 10.799 44.0162 9.92658 42.6108 9.33823C41.2054 8.74988 39.6936 8.4583 38.1702 8.48178C35.1202 8.49716 32.2012 9.72352 30.0554 11.8911C27.9097 14.0586 26.7128 16.9898 26.7282 20.0398C26.7436 23.0898 27.9699 26.0087 30.1374 28.1545C32.305 30.3003 35.2362 31.4972 38.2862 31.4818C40.4873 31.4959 42.6366 30.8141 44.4272 29.5338C46.3839 28.1486 47.9059 26.235 48.8152 24.0168H42.2152C41.8006 24.6733 41.2176 25.2067 40.527 25.5616C39.8364 25.9165 39.0633 26.0799 38.2882 26.0348C35.7632 26.0348 33.5882 24.5188 33.3182 22.2278H49.3632C49.6947 20.3897 49.5938 18.4997 49.0686 16.7073C48.5434 14.9149 47.6083 13.2693 46.3372 11.9008ZM33.3942 17.3358C33.7419 16.3351 34.3926 15.4675 35.2559 14.8535C36.1192 14.2395 37.1523 13.9096 38.2117 13.9096C39.2711 13.9096 40.3042 14.2395 41.1675 14.8535C42.0308 15.4675 42.6815 16.3351 43.0292 17.3358H33.3942Z" fill="white"/>
<path fill-rule="evenodd" clip-rule="evenodd" d="M17.213 2.03516L17.368 19.5452L6.335 2.03516H0V30.7672H7.035L6.881 13.4552L17.881 30.7722H24.251V2.03516H17.213Z" fill="white"/>
<path fill-rule="evenodd" clip-rule="evenodd" d="M157.977 30.7672H165.316V8.48016H170.952V2.03516H152.303V8.48016H157.977V30.7672Z" fill="white"/>
<path fill-rule="evenodd" clip-rule="evenodd" d="M133.977 30.7672H141.323V19.8192H149.364V13.3742H141.323V8.48016H149.675V2.03516H133.975L133.977 30.7672Z" fill="white"/>
<path fill-rule="evenodd" clip-rule="evenodd" d="M116.164 1.49171C114.156 1.44853 112.161 1.81329 110.299 2.56388C108.436 3.31447 106.745 4.43529 105.329 5.85844C103.912 7.28159 102.799 8.97748 102.057 10.8434C101.315 12.7093 100.959 14.7064 101.012 16.7137V16.7507C101.029 19.7491 101.934 22.6753 103.612 25.1599C105.29 27.6445 107.668 29.5762 110.443 30.711C113.218 31.8458 116.268 32.1329 119.206 31.5361C122.145 30.9392 124.84 29.4852 126.953 27.3575C129.066 25.2299 130.501 22.5239 131.077 19.5814C131.653 16.6388 131.345 13.5915 130.19 10.8242C129.036 8.05681 127.088 5.69348 124.591 4.03252C122.095 2.37155 119.162 1.48741 116.164 1.49171ZM116.279 24.8657C111.343 24.8657 108.35 20.7477 108.35 16.3657V16.3267C108.35 12.2917 111.111 7.94071 116.2 7.94071C121.484 7.94071 124.011 12.7167 124.011 16.4407C124.011 20.1307 121.487 24.8657 116.28 24.8657H116.279Z" fill="white"/>
<path fill-rule="evenodd" clip-rule="evenodd" d="M77.9768 21.2553C77.7848 26.8853 80.8178 31.3173 88.3528 31.3173C95.9698 31.3173 98.3818 26.6913 98.3818 22.1113C98.3818 18.7713 97.0218 16.2853 91.6558 13.8793C86.4858 11.5463 85.7108 11.1973 85.7108 9.87928C85.7492 9.24581 86.037 8.65333 86.5111 8.23148C86.9852 7.80962 87.6071 7.59274 88.2408 7.62828C90.4938 7.62828 90.7258 9.45328 90.8828 10.4233H98.1478C98.0318 3.51128 92.4368 1.48828 88.4738 1.48828C83.6558 1.48828 78.4098 4.55728 78.4098 10.3443C78.4098 15.7443 83.4248 17.7583 85.4418 18.5733C89.8738 20.4383 91.0778 20.9033 91.0778 22.4163C91.0757 22.7813 91.0015 23.1424 90.8596 23.4787C90.7176 23.815 90.5105 24.1199 90.2504 24.376C89.9902 24.6321 89.682 24.8342 89.3435 24.9709C89.005 25.1075 88.6428 25.176 88.2778 25.1723C87.3458 25.1723 85.2858 24.5903 85.2858 21.2503L77.9768 21.2553Z" fill="white"/>
<path fill-rule="evenodd" clip-rule="evenodd" d="M178.829 0C177.79 0 176.773 0.308318 175.909 0.885964C175.044 1.46361 174.37 2.28464 173.972 3.24523C173.575 4.20582 173.47 5.26283 173.673 6.28259C173.876 7.30235 174.377 8.23906 175.112 8.97426C175.847 9.70947 176.784 10.2101 177.804 10.413C178.823 10.6158 179.88 10.5117 180.841 10.1138C181.802 9.71595 182.623 9.04214 183.2 8.17763C183.778 7.31312 184.086 6.29674 184.086 5.257C184.086 3.86284 183.532 2.52585 182.546 1.54003C181.56 0.554212 180.223 0.000265125 178.829 0ZM178.829 9.663C177.958 9.663 177.106 9.40465 176.382 8.92062C175.658 8.4366 175.093 7.74863 174.76 6.94372C174.426 6.13881 174.339 5.25311 174.509 4.39863C174.679 3.54414 175.098 2.75925 175.715 2.1432C176.331 1.52714 177.115 1.10761 177.97 0.937641C178.824 0.767673 179.71 0.854907 180.515 1.18831C181.32 1.52171 182.008 2.08632 182.492 2.81071C182.976 3.53511 183.234 4.38677 183.234 5.258C183.234 6.42628 182.77 7.54671 181.944 8.37281C181.118 9.1989 179.998 9.663 178.829 9.663Z" fill="white"/>
<path d="M177.36 2.76589C177.782 2.69457 178.209 2.66111 178.637 2.66589C179.141 2.61809 179.647 2.74904 180.065 3.03589C180.197 3.15163 180.302 3.29566 180.371 3.45734C180.44 3.61901 180.472 3.79418 180.465 3.9699C180.464 4.22651 180.382 4.47633 180.231 4.68348C180.079 4.89064 179.866 5.04447 179.622 5.12289V5.14389C179.795 5.22694 179.945 5.35221 180.058 5.50824C180.17 5.66426 180.242 5.84603 180.266 6.03689C180.363 6.47314 180.485 6.90378 180.629 7.32689H179.764C179.626 6.97412 179.523 6.60872 179.456 6.23589C179.318 5.63589 179.105 5.4359 178.625 5.4269H178.199V7.32689H177.36V2.76589ZM178.197 4.80489H178.697C179.268 4.80489 179.618 4.50489 179.618 4.04189C179.618 3.54189 179.267 3.29989 178.718 3.29989C178.543 3.2949 178.368 3.30864 178.196 3.34089L178.197 4.80489Z" fill="white"/>
</svg>
